<?xml version="1.0" encoding="UTF-8"?>
<svg width="550px" height="385px" viewBox="0 0 550 385" version="1.1" xmlns="http://www.w3.org/2000/svg" xmlns:xlink="http://www.w3.org/1999/xlink">
    <title>free-vector-freshwater-fish-set</title>
    <g id="free-vector-freshwater-fish-set" stroke="none" stroke-width="1" fill="none" fill-rule="evenodd">
        <path d="M269,85.6343823 C270.703081,85.8073193 271.298319,84.8472853 273,85.0211571 C272.938375,85.5343593 270.368347,86.5430027 269,85.6343823 Z M263.16883,77.8558676 C264.72078,75.8706871 266.653858,77.9403711 268,78.0911772 C266.513603,78.0950774 267.109686,82.5555584 264.339653,80.4221718 C262.955398,79.9931544 262.805996,78.8777091 263.16883,77.8558676 Z M231,95 C232.295647,92.8008421 235.176738,93.2997895 237,92 C235.515919,93.8138947 232.794672,94.6602105 231,95 Z M231,91.9103371 C232.728395,89.866851 234.88203,89.0963562 237,88 C235.045267,89.242537 233.452675,92.5879461 231,91.9103371 Z M232,89 C233.195886,86.1337232 235.848229,85.7859649 238,85 C237.094857,86.3005848 233.696457,88.1017544 232,89 Z M234,84.9790229 C236.530467,83.7230852 233.989093,80.7114571 235.735606,79.0737842 C239.599476,77.8076474 242.868904,75.1894106 247,75 C245.37892,76.4686604 242.388988,76.1962006 240.60839,77.5279026 C245.545254,78.0276551 238.695543,80.4521104 237.433036,81.0800792 C234.90666,83.7609673 239.745359,81.9047437 238.804615,82.8110004 C236.721342,82.7527203 235.656529,85.2529398 234,84.9790229 Z M204.384,82.9005 C204.464,82.6305 204.542,82.3625 204.616,82.0995 C204.583,82.3865 204.496,82.6485 204.384,82.9005 Z M201.930836,86.6775228 C202.841775,85.4114236 204.313292,84.3610906 205,83 C203.86483,86.3613373 202.457156,90.0470022 202.841775,94 C202.019594,91.3633111 199.727453,89.0930175 201.930836,86.6775228 Z M202.587766,96 C202.502766,95.3258786 202.447766,94.6597444 202.411766,94 C202.522766,94.6469649 202.594766,95.3099042 202.587766,96 Z M176,115 C174.709458,114.497224 172.6793,113.451942 173.042911,111.746337 C175.135048,109.126968 174.668139,114.179392 176,115 Z M199,77 C198.891327,78.3626782 197.868867,79.4314941 198.290705,81 C195.729297,80.7681339 197.525321,77.4513329 199,77 Z M181,104.997477 C179.043505,105.098603 179.120846,102.132258 179,101.019879 C180.410272,100.704835 180.396979,104.227369 181,104.997477 Z M200.227977,70.304404 C200.599841,69.2312291 202.000266,69.3944496 202.976607,69 C203.356383,70.5886798 198.968386,76.3354024 200.227977,70.304404 Z M170.004454,110.004027 C170.724944,111.172767 170.304009,113.050499 171,113.942874 C169.830735,114.378084 169.136971,112.227862 169,110.842162 C169.209354,110.530929 169.394209,109.945913 170.004454,110.004027 Z M194,79.1728273 C192.729468,80.0939904 195.314734,86.592926 192.254577,82.8464969 C191.356932,81.1812648 193.047951,78.2599012 194,79.1728273 Z M183,98 C181.489577,97.1728583 181.06075,95.4756065 181,93.5903679 C184.114949,91.147883 181.601549,97.010384 183,98 Z M200.472422,67 C199.077552,65.3423703 201.070224,63.0433772 202.583131,63 C204.281343,64.9535244 200.226194,65.8567002 200.472422,67 Z M196,71.0531912 C194.346241,71.8071812 196.451025,76.6004935 194,74.4492932 C194.1082,73.0684467 194.100228,70.6075944 196,71.0531912 Z M179,109 C174.526405,108.322514 175.540492,102.948257 171.51115,102.371703 C169.383053,100.369664 174.711398,96.8896005 172.791249,100.719468 C174.384621,104.438725 178.023722,105.508876 179,109 Z M165,114.952922 C163.65417,115.264363 163.04551,113.947495 162.064029,113.441227 C162.024487,111.747502 161.684146,110.090753 163.09635,109 C164.981641,109.398189 163.007381,113.643165 165,114.952922 Z M175.960714,96.2565682 C176.142329,97.9665236 174.222405,96.3282588 174.24835,95.3152961 C173.088242,90.7005407 176.39313,94.0407952 175.960714,96.2565682 Z M189.894391,73 C190.561194,74.8979734 187.795762,77.0363382 189.223439,79 C188.13193,78.6701607 185.948912,76.6464011 187.592401,75.2431866 C188.415528,74.5401817 188.707428,73.14116 189.894391,73 Z M169,105.975863 C168.300426,106.039139 166.352079,106.075488 166.34881,104.760169 C165.247144,103.255025 167.076171,102.353015 167.422689,101 C169.606407,101.382344 167.19876,104.529955 169,105.975863 Z M191,67.8429103 C192.131119,66.1596001 192.157138,63.8930035 195,64.0039193 C193.137624,64.6341819 193.352619,68.8594208 191,67.8429103 Z M170.255662,92.1349574 C171.32043,89.6803324 171.984344,91.8148408 171.840287,92.8719421 C171.874109,93.1263631 172.19855,93.6101213 171.812728,93.7785408 C170.410993,94.585999 169.540388,92.9889996 170.255662,92.1349574 Z M161.137225,101.8727 C160.342982,98.6152488 163.268274,100.159549 162.979918,102.334881 C162.623268,103.982711 161.710142,102.074827 161.137225,101.8727 Z M189,67 C187.825532,68.848299 186.266667,78.1913648 186,69.0543014 C186.770213,67.7224389 187.988652,67.5808122 189,67 Z M166.339234,99 C164.461118,97.5218254 164.4497,94.7511338 167,94 C166.733125,95.7247732 166.601828,97.276644 166.339234,99 Z M158.936371,109.608743 C158.961638,109.940755 159.13731,110.404661 158.766715,110.624486 C157.563482,111.785768 156.35303,109.98472 156.123213,108.864371 C155.862111,107.418074 156.000483,106.08548 156.687529,105 C158.295048,105.426006 156.612928,109.946819 158.936371,109.608743 Z M151,111.594154 C150.587432,112.050635 149.333635,112.174665 148.632855,111.691332 C147.902815,110.930529 146.433956,110.66201 147.229832,109.472856 C149.070294,107.758173 149.051275,111.231014 151,111.594154 Z M153,104.562182 C152.111051,105.662041 151.53136,104.440122 151.144453,103.626384 C150.853938,102.379527 150.977105,100.939736 151.73887,100 C153.305242,100.963361 151.813842,103.127641 153,104.562182 Z M147.092317,103.687504 C145.966012,103.259972 145.84321,102.15433 146.13471,101.13652 C146.578781,100.238832 148.080934,99.2171466 147.996585,100.911775 C146.728873,101.627342 148.718512,105.035973 147.092317,103.687504 Z M144,108.015463 C143.632409,108.875574 142.765843,109.313915 142.099147,108.741511 C140.964226,108.060653 140.825855,106.774252 141.157106,105.584255 C143.572308,101.196333 142.391263,107.232174 144,108.015463 Z M154.738731,84.58876 C156.014644,87.4574497 152.211039,85.2478365 152.05336,84.121367 C151.538489,80.4649363 154.923762,82.1467632 154.738731,84.58876 Z M175.490187,54.2482287 C176.097777,54.1992287 176.567215,54.2712287 177,54.1262287 C175.531068,55.4412287 169.749794,54.7162287 175.490187,54.2482287 Z M160.454979,75 C158.43749,74.4565352 159.054523,71.8692956 159.213981,70.5930205 C162.839914,67.9624193 159.693741,74.9320669 160.454979,75 Z M156,78 C154.417875,76.5344118 152.73085,74.1845352 155.402213,73 C156.192557,74.4038936 154.726828,76.4960241 156,78 Z M148.45951,77.7395482 C149.092571,74.6617888 151.191668,82.2798357 149.081038,80.8094092 C147.333072,80.1577877 148.158358,78.7768769 148.45951,77.7395482 Z M155.04978,66.2495389 C154.640128,64.4315051 156.830074,62.068456 159,62 C157.275148,62.8846624 157.777203,69.1220587 155.04978,66.2495389 Z M149.260608,69.7053663 C150.106044,68.3044806 151.51199,67.3268733 152.998898,67 C153.076746,69.1178981 148.999037,70.3922521 150.828479,72.9695805 C149.344685,73.2949475 148.556857,70.9300115 149.260608,69.7053663 Z M143.278346,76.1452231 C142.176385,74.1322605 144.66688,73.3681501 145.187779,72 C146.061748,73.5418116 144.598799,75.6710519 146,77.3200805 C144.348641,79.3088816 144.674797,76.3188846 143.278346,76.1452231 Z M129.664011,81 C127.339698,80.9084774 127.491937,76.6776354 129.860507,78.4207257 C129.782617,79.1820276 130.333159,80.3371542 129.664011,81 Z M43,185 C42.4799483,185.437218 41.9003881,188.396721 41,186.192413 C41.4592497,185.044715 42.3247089,185.27823 43,185 Z M37.9746944,191.081656 C38.2189865,191.604656 36.6296338,192.488656 36,191.562656 C36.5860102,191.299656 37.6242516,190.892656 37.9746944,191.081656 Z M125.999944,77 C126.00851,78.4227405 125.033641,79.4693878 125.612737,81 C123.529361,80.7259475 123.267225,77.4285714 125.999944,77 Z M44.0147284,179.941183 C44.4981424,178.557287 46.7772568,176.487518 45.7260595,179.710309 C45.4581295,180.772871 43.8288877,181.871887 44.0147284,179.941183 Z M34,186.942613 C35.3718033,186.605613 36.6242623,186.388613 38,186.051613 C37.5003279,186.527613 37.0019672,187.006613 34,186.942613 Z M39,177.271996 C39.7594129,176.502044 40.027441,174.971325 41,175.000409 C40.3950223,175.917309 40.7396299,179.523684 39,177.271996 Z M33,183.366507 C33.8326343,181.857352 35.7235985,182.504133 37,182 C37.0015243,183.58048 34.3160501,184.792992 33,183.366507 Z M121,72.059609 C119.100848,73.2984505 120.147854,75.4058424 119.081944,77 C116.333555,75.2261423 119.51238,71.4837519 121,72.059609 Z M115,79.8279152 C114.201556,81.6155432 115.373129,88.6855059 113.022156,82.5298478 C112.891691,81.3187828 113.310483,77.2786022 115,79.8279152 Z M33,178.22215 C33.8726287,178.10258 34.7371274,176.353871 36,177.258948 C35.5853659,179.120584 33.7113821,179.56565 33,178.22215 Z M29,183.465233 C29.1089635,183.129233 29.6304317,183.201233 30.1083145,183.059233 C32.5631067,183.529233 29.1914644,184.536233 29,183.465233 Z M38,171.23673 C37.3090909,172.118983 36.3030303,173.702609 35,172.653011 C35.6606061,171.511127 37.129697,170.534127 38,171.23673 Z M116,70 C116.004408,71.4505006 115.022462,72.6918799 114.851432,74 C113.130814,72.9069336 114.276418,70.3633667 116,70 Z M29,178.551531 C29.7461804,178.503531 30.334717,178.571531 30.8759606,178.426531 C31.091407,178.522531 31.2963439,178.617531 29,178.551531 Z M111,75 C110.005405,76.8104992 110.167568,83.8080995 109,77.2515362 C109.714715,76.5450342 109.969369,75.1404577 111,75 Z M37.2327763,167.02863 C39.209591,167.349824 36.8527902,168.794059 35.9006072,168.878344 C31.6778827,169.624379 35.5723703,166.681239 37.2327763,167.02863 Z M32,176.033068 C31.0347958,177.751266 28.9757943,176.940486 28,175.45979 C29.0786687,174.791511 30.881997,174.747286 32,176.033068 Z M33,170.497187 C32.0918149,171.865082 29.4469751,172.988756 29,170.634886 C30.2540925,170.788173 31.6049822,169.237113 33,170.497187 Z M105,76 C104.168564,77.8945577 103.080679,80.1470595 103.862175,81.9981846 C103.283139,82.074566 101.280134,79.7247154 102.270839,77.9709391 C102.848525,76.4388185 104.453358,76.3908929 105,76 Z M109,70.0001478 C108.83647,71.2490489 107.078174,73.1450563 106.984529,75 C104.813914,73.2512553 106.568017,69.9746601 109,70.0001478 Z M98.6995208,84.3586655 C98.3118798,85.1450762 97.6613039,85.2164433 97.0873548,84.5274762 C96.3992168,81.6206388 100.044245,80.7889374 98.6995208,84.3586655 Z M29,166.322242 C29.8285149,166.06717 32.6958416,165.591741 33,166.705604 C32.2934653,169.40574 30.1310891,167.178014 29,166.322242 Z M35,162.327528 C33.9612497,163.471851 32.8520981,163.949038 31.2727194,164 C27.4298746,160.145439 33.3595184,163.212409 35,162.327528 Z M38,151.542406 C37.3776637,153.026054 36.0817399,152.861044 34.8282814,153 C31.9274622,151.287653 37.5416676,150.333776 38,151.542406 Z M82,84 C79.4044344,86.0712687 76.1490532,89.2676881 73,92 C73.9598641,88.163195 77.6274478,84.4737476 82,84 Z M67.7787596,90.1322285 C68.9951338,89.7016692 69.994714,88.850149 70.9986592,88 C71.1048737,88.8816868 64.8571336,97.2995329 67.7787596,90.1322285 Z M62.6432502,93.7069369 C61.6505377,95.5492104 61.4882414,95.3968655 61,93.4163823 C61.5436927,93.0017529 61.5747995,91.808123 62.478249,92.0264317 C63.0895651,92.2840044 63.1882954,93.2985898 62.6432502,93.7069369 Z M56.9313605,96.4577214 C57.4962721,97.853129 54.3664931,99.01085 55.1168981,96.6206302 C55.5603959,95.8568282 56.28382,95.7927329 56.9313605,96.4577214 Z M295.605,95.4962965 C295.200032,96.034093 293.982287,96.1756184 293.47359,95.7525319 C291.063676,94.9078487 292.378046,92.8088035 292.201849,91.2132908 C293.182298,90.2881616 293.598633,92.6613192 293.462223,92.8385984 C293.870033,93.7637276 293.236293,96.4288744 294.755278,94.7916489 C296.035545,92.3708197 296.34531,93.7860737 295.605,95.4962965 Z M243,63 C239.471144,67.0078642 232.56193,69.5458445 227,71 C232.073237,67.7442359 237.728316,65.8196604 243,63 Z M43,232.221218 C42.1192521,233.380195 40.1008163,233.318033 39.9034758,231.542961 C35.5580113,224.709279 33.064104,215.105932 34.3289375,207 C36.7274856,215.71512 38.5883139,224.797687 43,232.221218 Z M283.616435,106.651394 C279.203992,105.043605 278.794017,110.670867 274.62061,109.790609 C273.30591,114.165518 268.555758,109.580958 267.045105,113.521291 C258.071515,114.2516 247.902744,113.755934 239.019488,111.308151 C246.696444,109.822543 259.024881,112.032906 268.482102,107.630229 C252.68208,108.078689 234.978106,111.617769 219.590839,107.799617 C222.519034,110.929113 227.914028,110.61533 231.630208,111.398399 C239.622637,113.947536 249.195207,114.511234 256.223153,116.574425 C249.638536,117.025661 242.446601,117.546318 237.012694,116.207882 C231.256367,118.676491 225.946147,114.46264 220.24124,113.453259 C216.262398,111.648314 212.247421,109.542082 208.101809,107.608015 C212.519812,111.930163 218.422063,114.719497 223.965759,116.952075 C219.226726,116.434195 214.027686,115.826067 209.990474,117.494947 C207.261013,114.78753 204.664968,119.762235 201.935506,117.058983 C201.793752,113.156137 204.658019,109.204697 203.523986,105.868326 C199.197707,110.283498 201.347644,118.483501 196.689215,122.636262 C198.059505,116.14818 201.31568,110.341812 202.555333,104.02034 C202.093937,103.917597 201.664506,104.123083 201.462993,103.692673 C201.618644,102.468088 201.122505,102.069611 199.800857,102.373675 C199.575718,104.360503 197.164509,105.693385 196.807344,107.842658 C197.192304,104.631244 201.74928,100.947769 197.901074,98.9748252 C198.426398,98.3125493 199.221333,98.6707614 199.653544,98.4694407 C199.614631,96.8158336 199.411728,95.0289383 199.078189,93.4086533 C199.474266,94.2666963 200.615248,97.6086209 201.872968,98.0640223 C201.36849,96.3104491 202.206507,89.1295458 198.30549,91.9924659 C199.047614,95.8203372 196.041594,97.2240288 193.729057,99.4482761 C193.198174,98.755455 192.50469,99.2899963 191.9071,99.3608057 C191.148298,100.649259 191.35537,102.436154 189.834988,103.666293 C186.057659,103.644078 188.681499,96.2576892 185.083447,100.439607 C185.297468,102.225114 185.465627,103.713499 186.92486,104.602088 C188.342401,103.834292 187.623903,105.428197 187.990796,105.991895 C187.330666,106.820781 186.633014,107.351157 185.574027,107.320612 C185.736628,106.094638 184.508092,105.93497 183.847963,105.405982 C182.156642,105.151901 183.251762,106.829112 183.485239,107.563585 C183.984158,107.956508 184.485856,108.349431 184.981996,108.746518 C180.96146,114.484854 177.740029,121.94483 169.518292,120.017704 C169.600287,123.329084 167.168232,120.589733 165.417152,121.09234 C164.22614,121.222852 162.269377,121.296438 162.604306,122.9195 C157.891678,118.63345 154.507646,127.318011 149.624079,122.900062 C147.353234,126.777916 144.019233,120.073241 141.478778,124.285704 C138.18647,120.589733 134.477238,129.007717 132.666399,122.429388 C133.91578,120.173207 137.152499,118.143338 136.582703,115.798299 C134.528658,116.33284 132.557999,110.977708 129.852163,113.700397 C125.060319,116.666061 121.540093,124.156581 115.471072,122.586279 C111.483891,118.066975 107.962275,125.557496 104.072376,120.575849 C102.356039,121.372801 101.159468,121.51442 99.0025824,121.154819 C96.3439984,117.692102 94.7721957,123.748386 91.8481703,120.61889 C89.2799197,124.531454 82.7453342,121.511643 82.8620729,127.82895 C82.2394667,128.954957 81.0470647,129.096576 80.2562992,130.090684 C80.678782,128.530101 83.0594168,126.901486 82.2603129,125.184011 C77.0098527,130.762679 71.997039,137.066101 66.3532807,141.782561 C70.4085594,136.344124 78.3398396,131.813712 79.2765283,124.167689 C75.7465736,128.946627 70.0055331,135.484692 65.2831763,139.041822 C68.0112476,133.901894 75.1892855,130.668267 75.963374,124.24544 C72.1971624,126.940361 69.1702957,133.468708 64.4743441,135.966474 C66.1517675,132.156652 72.8003122,129.586688 72.7822455,124.159358 C69.2759164,125.161797 67.6999445,129.869926 64.7272779,131.565185 C66.1114649,129.143782 69.683112,127.379102 68.7089001,124.170465 C67.9806732,124.407885 66.920297,124.37734 66.5575733,125.172904 C67.8444781,123.212456 65.0663759,123.987194 64.2353078,123.329084 C62.8108182,122.73484 60.6219684,123.440157 60.3301217,124.832741 C58.8806167,126.654347 53.7065925,124.988244 53.5856846,129.220145 C48.0947983,130.001825 46.6244471,136.952251 42.7540046,138.757196 C44.5314897,143.68053 35.7858184,143.773554 39.0795163,147.470914 C38.3485099,147.705556 37.4243289,147.512566 37.0935693,148.603864 C36.7377943,150.755913 41.7700645,149.875655 39.8952972,153.259233 C38.3749151,154.49076 32.9701931,153.446669 33.178655,156.591438 C35.0423043,158.340846 37.5132726,154.890625 38.7501465,157.763264 C36.8295176,158.136749 34.5767394,158.24088 31.5971241,158.581043 C30.0461676,159.515449 32.0362838,161.09547 33.063306,160.824728 C35.6774182,161.284295 40.1482309,160.771968 37.1491592,164.885854 C38.6459155,166.071563 39.9606152,163.057306 41.1252223,165.335701 C37.7356319,171.303126 45.9198459,171.57248 46.7620319,176.304212 C49.4275647,181.123414 58.3733594,180.100149 56.3012482,185.766287 C55.3784569,186.929783 56.7028848,187.980816 56.9766647,189.005469 C65.1080683,194.109297 71.3257917,200.934765 77.7380796,206.834158 C78.0674493,207.100734 78.2397778,207.232634 77.9757261,207.564466 C71.0645195,202.621695 63.758625,195.471337 56.712613,189.337301 C53.5620589,188.18769 56.5569614,191.919761 54.732225,191.825348 C54.294455,192.61397 54.480681,193.627516 54.8781483,194.550815 C54.9323484,194.535542 54.989328,194.523046 55.0407486,194.506385 C55.3728979,194.770185 55.4409954,195.365817 55.4743493,195.667104 C59.8979107,199.979533 65.9043927,203.668563 69.3342858,208.553021 C63.594635,207.250684 59.3364533,200.350241 55.4743493,195.667104 C55.2533797,195.329718 55.0490871,194.946514 54.8781483,194.550815 C54.1610394,194.738251 53.2271301,194.764631 52.8935911,195.504659 C56.023299,200.425216 60.5719375,204.579365 64.2686617,209.137545 C59.6852796,206.038594 55.8273448,201.351291 52.7296011,196.730633 C50.9896391,201.304085 57.7924456,205.34855 60.6914557,209.540187 C61.3557542,210.067786 62.6148641,210.531518 61.1973232,211.295148 C56.9113467,208.164263 53.8427876,202.484241 50.3864894,198.660535 C49.6693805,201.605372 52.6892984,204.27669 53.4606074,207.05214 C56.3471098,208.533583 57.2837986,211.440932 58.2538412,213.291695 C53.4814536,212.480858 53.3577662,206.159386 50.1349454,203.061823 C50.2975456,201.837238 49.7305293,200.84313 48.7354712,200.054508 C46.9788323,200.555727 48.0850701,203.597753 48.5520247,205.051428 C50.3211713,208.616888 54.1749369,211.947705 53.8539055,215.75475 C49.5040007,212.029622 47.3665714,206.545367 46.056041,201.719222 C42.2509166,202.759148 46.3395492,206.811943 46.4799135,209.361081 C48.0475469,212.497519 50.8089722,215.499281 51.6122453,218.576018 C46.4479493,218.263623 46.4493391,210.420444 43.7212678,206.359319 C43.2862773,205.204154 44.1062274,203.149294 42.0813676,202.624471 C40.1357232,204.053155 42.4635477,207.25346 42.5733376,209.506865 C44.5398281,213.505511 46.3756826,217.667992 48.3435628,221.666638 C44.5815205,225.716657 44.2215763,217.30978 41.7311516,215.332671 C39.9911896,210.70507 39.7062917,204.255864 37.6758729,201.018071 C35.6426745,206.982719 39.2990961,211.239612 40.5429188,216.82661 C42.3120654,220.394847 46.5035392,225.343172 44.425869,228.296339 C39.2629628,220.139378 37.0101846,209.688747 35.0200683,200.266936 C33.0577471,197.627551 32.9674136,200.802866 32.3434176,201.93165 C30.930046,214.610693 33.495517,229.09468 42.6720096,238 C31.1774208,228.604568 27.40704,211.546452 32.1988841,198.027416 C29.9864085,190.589655 26.3550023,183.916913 25,176.079288 C27.675261,163.858424 28.0282564,151.150224 34.9464118,140.403861 C30.7521585,144.6552 28.2575645,150.519882 25.858863,155.92222 C26.6232233,146.785035 33.1453011,136.538502 37.9468733,127.091699 C33.4579939,131.377749 30.4992247,138.49895 26.7774851,144.205352 C29.4402383,138.469793 29.9155314,132.083066 32.7103106,126.182285 C29.7696081,128.174666 27.932364,133.216015 26.2215867,136.728716 C28.2839697,129.706092 32.1696994,122.77927 33.8012611,115.95519 C31.285821,117.746251 30.6395891,121.290884 28.8287501,123.910831 C30.6979584,117.819837 34.1486976,111.088781 35.2493764,104.928366 C38.7890594,102.863787 42.4746657,95.5093313 46.0032306,90.730393 C45.6405069,91.5273455 45.4445528,92.4506442 45.2499883,93.3794965 C43.2960055,93.4489175 43.6976421,95.6648342 43.0778154,96.7922305 C43.2431952,96.9255187 43.4071852,97.0574185 43.5739547,97.1907068 C49.5776572,90.3208094 54.9142817,81.5654389 60.1550137,74.6302859 C59.0751811,78.3734636 54.4917989,83.1232451 52.9130475,87.8272088 C59.4768177,79.2315065 64.623047,72.7614738 72.7461121,65.9526669 C70.5391955,69.0668908 64.2366976,75.9742755 61.2362361,81.4446465 C64.2089027,78.3901246 68.2697404,74.302619 71.6370948,70.7552083 C74.9377415,67.9603208 78.6428042,66.0304184 81.5445937,62.3788763 C80.2298941,65.3945224 73.7870318,69.7527698 72.3097319,73.9930015 C77.2641762,69.8041413 81.6516042,64.6281151 87.2064188,61.7304846 C86.1154682,62.7593031 81.2291214,66.1859213 80.2813147,69.7624887 C87.8137377,65.7332967 94.3427642,56.8418612 103.342759,53.6970921 C99.743317,57.8831755 94.4553337,60.446197 91.4562619,64.5642479 C99.7210811,60.300413 106.486364,53.4888292 114.752573,49.2263828 C111.585342,51.8504948 104.751961,58.0636699 99.0970852,61.423644 C99.1304391,61.7221541 99.2985983,61.8512771 99.3319522,62.1497872 C109.377036,56.3225925 118.830088,49.2124986 129.809081,44.9389448 C124.097225,49.0625493 117.216593,52.2600784 112.829165,57.4388814 C122.517084,52.4058624 132.132736,46.7841537 142.191718,42.3148328 C137.370689,47.6921797 127.440954,49.2777543 122.719987,55.5506315 C132.847066,51.6783308 141.634429,45.3929578 152.491125,42.6424997 C147.961943,45.2735538 140.025104,48.4433144 135.866984,52.9889984 C145.919016,48.5210659 155.808448,43.9226221 166.79717,41 C158.825587,45.2346781 144.829455,49.5526613 135.183229,56.2365105 C136.941257,57.093165 140.472602,53.6721005 142.994991,54.5870687 C148.644308,49.8692208 158.801961,47.6491388 166.706836,44.1794796 C166.045317,45.012531 165.419931,46.1399273 164.395689,46.4051153 C159.368978,48.6418584 152.68152,49.5582149 148.487267,52.4530686 C160.237569,50.9494108 171.345808,45.158315 182.367883,42.5397567 C180.790522,45.8844582 174.296239,44.5196423 170.956679,47.0118544 C169.111097,49.3346795 153.584855,52.1670543 163.617431,51.4714564 C172.447877,46.8424673 182.515196,46.4412142 192.675629,44.223909 C186.498208,48.2475474 176.8631,49.8053535 169.127774,53.4041357 C169.193092,53.998379 169.525241,54.2649555 169.954673,54.0664115 C179.452196,51.3215071 188.613402,48.3100262 198.652927,47.6130399 C192.827111,49.4818519 186.635793,50.7966847 181.179651,53.2319717 C181.082368,53.6943152 181.418687,53.9581149 181.843949,53.7609593 C190.97319,50.4523568 199.982913,50.0219469 209.35536,48.7987497 C204.131305,51.9615683 197.410494,52.5808032 191.819546,55.1785352 C197.851043,55.0896764 205.159717,53.0528656 211.848564,52.1309554 C206.851038,53.3111116 202.052245,54.916124 197.958054,57.3430805 C197.889956,58.1025457 198.059505,58.2358339 198.786342,58.0025795 C205.500205,56.0296361 213.613542,54.3468722 221.326632,53.1542202 C214.840687,55.8616373 208.192143,58.4343778 201.544988,61.0043415 C201.710368,61.1362413 201.743722,61.4305861 201.613085,61.5971964 C209.196929,60.5808736 215.837135,56.6516478 223.751738,55.8949594 C219.822927,58.4579809 214.227809,59.7020044 211.822159,63.7492459 C216.721014,61.6791131 221.44615,59.4812458 226.578482,58.1358677 C220.198158,61.731873 211.337138,66.0651288 205.824016,71.9756287 C214.22225,67.5424067 222.113228,61.363942 231.94985,60.2365457 C223.282004,63.6465029 211.976421,69.0085772 205.244492,77.4709912 C215.748192,69.0280151 228.411557,63.6576102 241.355651,60.6669556 C228.864614,68.8808426 214.337599,72.51017 205.578031,86.9289017 C205.097179,91.9688628 205.675313,97.0268733 207.448629,101.950207 C210.582506,106.872153 217.136548,106.121018 222.168818,105.242149 C219.96607,100.51597 214.258384,105.997449 212.344704,99.8800744 C210.349028,100.985256 209.133001,98.0751297 208.657708,96.0258232 C208.518733,95.6092975 208.42701,95.1719455 208.378369,94.7234861 C204.626055,86.5054339 213.962368,79.4605957 218.387319,74.9079697 C226.028142,71.7729195 235.497871,70.0832135 243.099782,66.6496532 C238.84438,70.3095258 231.557942,72.6462351 225.377741,75.3161649 C227.940433,75.2328597 230.475329,74.6983184 233.007447,73.9277458 C234.013623,73.5556495 235.042035,73.21271 236.077395,72.8919852 C241.584959,70.8621166 247.114758,68.0713943 252.90305,66.5843976 C248.435016,69.8166371 242.103334,71.0287269 236.077395,72.8919852 C235.053153,73.2696352 234.0303,73.61674 233.007447,73.9277458 C228.183638,75.7118643 223.819836,78.2512827 221.130678,83.0385515 C218.296986,87.2857254 216.858599,91.8244672 216.673762,96.8227757 C214.55301,95.4079767 215.068606,92.0299532 214.036024,90.9400443 C212.183493,91.9063839 214.077717,93.954302 212.85891,95.1469539 C211.595631,93.3295134 212.632381,86.5776317 210.301777,92.5742135 C210.702024,93.4350333 211.142573,97.3045571 209.708356,94.0001198 C209.971018,92.3104138 211.416353,89.1309343 209.391494,88.6061119 C208.939826,89.8445816 208.129604,92.4187105 208.378369,94.7234861 C208.406164,94.7817997 208.42562,94.8415017 208.454805,94.8998153 C208.489548,95.2080444 208.559036,95.5995785 208.657708,96.0258232 C208.895354,96.7339169 209.271975,97.3809202 209.857058,97.9015773 C213.735839,98.8193223 217.546523,100.493756 220.833272,102.830465 C235.5618,108.835377 252.732111,103.248379 266.330775,98.0723528 C275.436391,95.8245024 284.943643,95.7897919 293,98.9428916 C289.82721,101.567004 286.391758,103.167851 283.616435,106.651394 Z M193,125 C193.191652,121.454054 195.251906,117.716216 197,114 C195.835572,117.358108 195.267877,121.675676 193,125 Z M188,128 C189.062908,121.547379 193.43142,115.318076 196,109 C193.596425,115.452621 191.320729,121.741568 188,128 Z M181,132 C181.298627,128.019308 185.621331,124.054782 188,120 C186.286589,124.27436 184.791975,128.969017 181,132 Z M175.927875,132.589274 C176.030125,132.103305 176.533859,132.205155 177,132 C176.185004,134.774681 173.648293,136.795672 175.927875,132.589274 Z M184.178522,121.619941 C182.263445,124.672478 183.151395,121.887707 183.607896,120.64225 C186.346902,116.901759 184.203574,120.576338 184.178522,121.619941 Z M175.711674,128.804413 C178.703235,123.140644 181.849508,117.013224 186,113 C183.305204,118.343099 178.88045,123.461314 175.711674,128.804413 C175.137834,129.892745 174.568214,130.964419 174,132 C174.504923,130.924162 175.085795,129.860817 175.711674,128.804413 Z M136.706667,130.932057 C136.396674,131.811846 134.226725,132.748648 135.291828,131.069559 C135.601821,130.187534 137.775744,129.250732 136.706667,130.932057 Z M120,129 C122.653938,126.235927 125.341971,123.769719 128,121 C125.965223,124.002647 122.14388,128.287101 120,129 Z M69,195 C66.846723,194.440321 64.4359408,191.6538 62,190 C64.5084567,190.840261 66.5596195,193.347684 69,195 Z M93,211 C86.7633803,203.304824 76.9323944,194.945033 68.1521127,189.066284 C65.2239437,187.569492 62.0971831,185.637601 59,184 C72.8056338,187.00485 85.3070423,199.950769 93,211 Z M74,196 C79.4602976,198.938653 83.5365803,204.087797 87,209 C83.0563014,205.090465 78.2670413,200.184041 74,196 Z M75.5508211,201.406382 C73.7000666,199.791647 71.813249,198.293759 70,197 C72.2359077,198.210699 73.9842432,199.764899 75.5508211,201.406382 C78.2339103,203.748944 80.8362184,206.347724 83,209 C80.1423657,206.955889 78.0853307,204.064289 75.5508211,201.406382 Z M60.8243229,197.689884 C60.1677298,197.159258 59.5478406,196.60343 59,196 C59.6008575,196.530627 60.2098714,197.100455 60.8243229,197.689884 C64.801945,200.908645 70.3156959,203.108155 72,208 C68.1773502,205.339867 64.396842,201.121456 60.8243229,197.689884 Z M102,41.1299288 C105.245616,40.5251815 109.507844,42.1246224 113,44 C109.300461,43.2283689 105.838761,41.7032821 102,41.1299288 Z M107.419105,38.34394 C111.361065,40.7599046 106.785417,40.2096623 106,38.7429568 C106.251393,37.9084833 107.207876,37.7791217 107.419105,38.34394 Z M109.665102,36 C115.07833,37.9644406 120.819208,38.914137 126,41.4705117 C125.906186,41.9050304 125.437114,41.8100607 125.003048,42 C119.39799,40.8993929 114.614859,37.8772767 109,36.7792715 C109.13162,36.6257589 109.397661,36.312229 109.665102,36 Z M130,40 C123.530932,39.179941 117.410296,34.6283186 111,33 C117.271763,33.3657817 123.88776,36.8893805 130,40 Z M136,39 C129.428953,37.6088188 122.811502,33.1363556 116,31 C122.571047,32.3925978 130.323279,34.7329556 136,39 Z M125.349261,30.1119757 C130.801955,34.0319264 138.012,34.5915052 142,39 C138.024603,37.4285405 134.243845,34.882892 130.099014,33.1679136 C128.263245,33.073684 113.988783,26.4268741 125.349261,30.1119757 Z M130.94011,28.964747 C131.127136,29.0531426 131.127136,29.0531426 127,28 C128.428624,28.3155626 129.665507,28.5379772 130.94011,28.964747 Z M145,37 C140.945199,34.6213592 136.891746,32.241241 133,30 C138.492645,31.808358 143.977204,35.7914732 145,37 Z M149.908881,36.9335029 C148.452592,36.1147959 137.32238,30.2060341 146.757748,34.6232141 C147.422093,35.1093214 150.571839,37.4183309 149.908881,36.9335029 Z M156,36.9258692 C153.95792,37.4414275 152.635193,35.1167281 150.62487,34.6118826 C136.185334,26.6160413 153.851605,33.9650912 156,36.9258692 Z M165,36.9851342 C156.553863,37.3818149 150.013249,29.7313536 143,27 C150.530832,29.6752573 157.854631,32.9181554 165,36.9851342 Z M264.348921,67 C263.390319,67.8621043 260.155209,68.5395711 258.540429,70.2290735 C260.857167,70.7205146 272.7849,69.6487842 262.083512,72.2350972 C264.23794,73.9454233 267.08184,72.4183464 270.383538,72.3406043 C268.319283,76.6483493 256.689813,69.8417512 259.994286,78.9611767 C260.979246,77.032895 263.413902,74.6492669 266.392367,75.6626906 C267.656169,77.4799121 271.52526,77.0315068 270.212904,80.049566 C268.402519,82.6664204 265.622433,82.0861312 263.139223,81.4628062 C260.916819,77.7978217 257.154548,80.4938065 254.371687,78.5474776 C254.314809,82.0222717 258.877535,81.0463307 260.995894,82.4637357 C263.583149,85.3346402 267.71166,84.5572193 270.953706,83.8866937 C273.420269,81.7904336 270.29614,75.5155359 276.021397,76.817716 C283.391953,76.7260914 274.371935,78.2156855 273.780958,79.64142 C287.161161,76.7483034 267.75189,84.8584699 281.066892,82.7261153 C280.040313,82.9926596 276.24336,84.0310719 279.484018,84.71548 C292.578444,84.5738783 272.809871,85.6317261 275.004529,87.6419145 C258.398927,87.4378415 239.989877,88.4873598 228.425608,100.678986 C225.089228,101.813188 222.139895,99.7363634 220.545924,97.6581506 C218.469183,90.054696 222.540816,82.1971914 228.974966,77.8422458 C240.365827,73.3706871 251.91761,67.6719138 264.348921,67 Z M285.955153,89.1035723 C285.75678,97.871752 290.872568,85.6752029 289.869527,94.0877657 C267.674104,88.4673514 251.017758,105.906472 230,102.572563 C238.028518,94.5670151 249.035425,89.9898364 261.123604,90.8761004 C257.068134,92.5416656 253.244565,94.9406907 248.992118,96.1839608 C255.551,96.4895691 262.257963,91.5012083 269.878559,90.4815879 C275.407857,91.0566871 281.029356,88.4590166 285.955153,89.1035723 Z M297.883545,90.5890741 C288.460717,78.2301957 272.688356,67.0555013 258.249007,61.0094913 C229.993032,50.2086767 202.408427,36.1610851 170.806715,37.063122 C161.350526,32.2610612 151.920748,26.3971264 141.907168,23.3213057 C129.145553,21.3073589 115.556886,29.2088686 104.542505,34.546036 C105.452956,39.876254 98.685033,36.1235582 98.3667224,41.2911594 C99.3689144,42.0792255 100.464237,42.4100187 101.784739,42.1084131 C104.076854,43.6567477 109.144804,43.0743849 108.754213,46.2891943 C104.388214,47.69993 99.9513255,48.5046748 95.7799273,50.3462755 C80.7400977,58.7133974 64.8273464,66.1187173 51.921171,78.6235338 C21.5037411,107.016153 13.2373948,149.479991 25.3609987,188.098012 C34.6100769,197.606231 24.6729473,208.402876 28.2202343,219.623437 C32.101122,229.748766 34.7351771,243.485023 47.891553,245 C51.5861803,240.346657 42.0702216,239.022094 44.0773855,234.113012 C47.1576316,234.664798 45.4256882,231.387443 46.1512696,229.797412 C46.5098903,229.002397 48.7352847,229.95169 48.2279337,228.201821 C47.7886928,225.679176 48.6463245,223.923748 51.1650095,223.485934 C49.6582465,219.58313 55.6616683,221.912581 54.5941462,219.170333 C60.2125373,215.502421 66.1242189,210.45157 72.8184721,210.889384 C74.6894158,206.144309 77.6292716,213.359214 79.7045457,209.043614 C83.4561631,211.480087 87.7568315,209.477259 90.5813171,213.077067 C92.9999218,213.103475 95.6965272,215.51354 97.3381204,212.758783 C92.9540518,208.72672 91.1109081,203.207477 87.1216003,198.684784 C75.8736981,184.870693 59.4674958,182.678841 47.1770916,172.917662 C42.0813416,165.345556 40.5203685,154.354326 42.9737234,145.467387 C47.0214113,137.303188 53.8185247,129.430866 62.2905914,126.948527 C62.6617221,128.867962 62.5685919,130.691494 60.8839086,131.790895 C62.9119226,133.674192 59.3729756,135.739565 61.1980492,137.190607 C61.0076189,139.475582 64.3644755,142.412414 63.6792041,145.661971 C71.5869297,142.190032 79.4223751,136.763912 84.0941743,128.827655 C93.2417823,119.02339 105.729567,129.219603 116.853759,126.131274 C118.328552,131.098731 116.424248,136.900121 114.255844,141.677164 C114.586664,141.939852 114.753465,142.074671 115.085675,142.33597 C120.334326,136.750013 124.141543,127.860293 131.831038,127.736593 C131.516898,132.906974 135.711926,137.861923 134.035583,143.032304 C137.63291,138.845963 138.801902,131.917375 142.73283,127.999282 C153.661031,127.197317 164.061032,125.701798 174.655633,124.637145 C172.588699,130.307885 168.538231,135.756244 168.15459,141.691063 C168.921871,143.110138 163.927591,145.646682 168.2366,145.001774 C172.449698,138.328925 180.527004,136.342776 186.276055,131.158496 C190.949245,132.433023 189.671832,126.5399 194.179611,127.682388 C196.028315,125.362666 200.765444,125.871365 200.288673,121.701703 C219.13016,118.785719 235.608643,122.938702 253.424308,120.290967 C263.973038,114.859287 279.054568,116.000385 288.132676,106.954998 C293.117226,103.059143 298.895467,96.8115998 297.883545,90.5890741 L297.883545,90.5890741 Z" id="Fill-9" fill="#30414F"></path>
    </g>
</svg>