<?xml version="1.0" encoding="UTF-8"?>
<svg width="84px" height="84px" viewBox="0 0 84 84" xmlns="http://www.w3.org/2000/svg" xmlns:xlink="http://www.w3.org/1999/xlink" version="1.1">
 <!-- Generated by Pixelmator Pro 2.0.6 -->
 <g id="group">
  <path id="Path" d="M59.231 54.316 C59.54 54.442 59.86 54.502 60.175 54.502 61.161 54.502 62.095 53.916 62.49 52.946 63.574 50.291 64.124 47.478 64.124 44.587 64.124 32.387 54.199 22.462 41.999 22.462 29.799 22.462 19.874 32.387 19.874 44.587 19.874 47.409 20.398 50.159 21.434 52.76 21.944 54.043 23.399 54.671 24.681 54.159 25.964 53.649 26.591 52.195 26.08 50.912 25.281 48.901 24.875 46.773 24.875 44.587 24.875 35.144 32.557 27.462 42 27.462 51.443 27.462 59.125 35.144 59.125 44.587 59.125 46.827 58.7 49.003 57.862 51.056 57.34 52.335 57.953 53.794 59.231 54.316 Z" fill="#000000" fill-opacity="1" stroke="none"/>
  <path id="Path-1" d="M39.036 8.088 L39.036 16.704 C39.036 18.085 40.155 19.204 41.536 19.204 42.917 19.204 44.036 18.085 44.036 16.704 L44.036 8.088 C44.036 6.707 42.917 5.588 41.536 5.588 40.155 5.588 39.036 6.707 39.036 8.088 Z" fill="#000000" fill-opacity="1" stroke="none"/>
  <path id="Path-2" d="M14.095 20.874 L20.187 26.967 C20.675 27.455 21.315 27.699 21.955 27.699 22.595 27.699 23.235 27.455 23.723 26.967 24.7 25.99 24.7 24.407 23.723 23.431 L17.631 17.338 C16.654 16.361 15.071 16.362 14.095 17.338 13.119 18.315 13.119 19.898 14.095 20.874 Z" fill="#000000" fill-opacity="1" stroke="none"/>
  <path id="Path-3" d="M5.5 47.552 L14.116 47.552 C15.497 47.552 16.616 46.433 16.616 45.052 16.616 43.671 15.497 42.552 14.116 42.552 L5.5 42.552 C4.119 42.552 3 43.671 3 45.052 3 46.433 4.119 47.552 5.5 47.552 Z" fill="#000000" fill-opacity="1" stroke="none"/>
  <path id="Path-4" d="M69.884 46.624 L78.5 46.624 C79.881 46.624 81 45.505 81 44.124 81 42.743 79.881 41.624 78.5 41.624 L69.884 41.624 C68.503 41.624 67.384 42.743 67.384 44.124 67.384 45.505 68.503 46.624 69.884 46.624 Z" fill="#000000" fill-opacity="1" stroke="none"/>
  <path id="Path-5" d="M69.249 16.683 C68.273 15.706 66.689 15.706 65.714 16.683 L59.621 22.776 C58.644 23.752 58.644 25.335 59.621 26.311 60.109 26.799 60.749 27.043 61.389 27.043 62.029 27.043 62.669 26.799 63.157 26.311 L69.25 20.218 C70.226 19.242 70.226 17.659 69.249 16.683 Z" fill="#000000" fill-opacity="1" stroke="none"/>
  <path id="Path-6" d="M81.438 56.667 L2.562 56.667 C1.181 56.667 0.062 57.786 0.062 59.167 0.062 60.548 1.181 61.667 2.562 61.667 L81.438 61.667 C82.819 61.667 83.938 60.548 83.938 59.167 83.938 57.786 82.819 56.667 81.438 56.667 Z" fill="#000000" fill-opacity="1" stroke="none"/>
  <path id="Path-7" d="M67.919 65.167 L16.081 65.167 C14.7 65.167 13.581 66.286 13.581 67.667 13.581 69.048 14.7 70.167 16.081 70.167 L67.92 70.167 C69.301 70.167 70.42 69.048 70.42 67.667 70.42 66.286 69.3 65.167 67.919 65.167 Z" fill="#000000" fill-opacity="1" stroke="none"/>
  <path id="Path-8" d="M55.271 73.667 L28.729 73.667 C27.348 73.667 26.229 74.786 26.229 76.167 26.229 77.548 27.348 78.667 28.729 78.667 L55.271 78.667 C56.652 78.667 57.771 77.548 57.771 76.167 57.771 74.786 56.652 73.667 55.271 73.667 Z" fill="#000000" fill-opacity="1" stroke="none"/>
 </g>
</svg>
