<?xml version="1.0" encoding="UTF-8"?>
<svg width="96px" height="94px" viewBox="0 0 96 94" version="1.1" xmlns="http://www.w3.org/2000/svg" xmlns:xlink="http://www.w3.org/1999/xlink">
    <title>Group</title>
    <g id="Page-1" stroke="none" stroke-width="1" fill="none" fill-rule="evenodd">
        <g id="noun_river_3194545" transform="translate(-2.000000, 0.725000)" fill="#000000" fill-rule="nonzero">
            <g id="Group" transform="translate(2.400000, 0.000000)">
                <path d="M5.3,27.375 L14.3,27.375 L14.3,33.275 C14.3,33.675 14.6,33.975 15,33.975 L18.6,33.975 C19,33.975 19.3,33.675 19.3,33.275 L19.3,27.375 L28.3,27.375 C29.2,27.375 29.7,26.275 29.1,25.575 L23.3,18.775 L26.6,18.775 C27.5,18.775 28,17.675 27.4,16.975 L21.3,9.675 L23.1,9.675 C24,9.675 24.5,8.575 23.9,7.875 L17.6,0.375 C17.2,-0.125 16.4,-0.125 15.9,0.375 L9.6,7.875 C9,8.575 9.5,9.675 10.4,9.675 L12.2,9.675 L6.1,16.975 C5.5,17.675 6,18.775 6.9,18.775 L10.2,18.775 L4.4,25.575 C3.8,26.275 4.3,27.375 5.3,27.375 Z" id="Path"></path>
                <path d="M36.1,27.375 L45.1,27.375 L45.1,33.275 C45.1,33.675 45.4,33.975 45.8,33.975 L49.4,33.975 C49.8,33.975 50.1,33.675 50.1,33.275 L50.1,27.375 L59.1,27.375 C60,27.375 60.5,26.275 59.9,25.575 L54.1,18.775 L57.4,18.775 C58.3,18.775 58.8,17.675 58.2,16.975 L52.1,9.675 L53.9,9.675 C54.8,9.675 55.3,8.575 54.7,7.875 L48.4,0.375 C48,-0.125 47.2,-0.125 46.7,0.375 L40.4,7.875 C39.8,8.575 40.3,9.675 41.2,9.675 L43,9.675 L36.9,16.975 C36.3,17.675 36.8,18.775 37.7,18.775 L41,18.775 L35.2,25.575 C34.7,26.275 35.2,27.375 36.1,27.375 Z" id="Path"></path>
                <path d="M66.9,27.375 L75.9,27.375 L75.9,33.275 C75.9,33.675 76.2,33.975 76.6,33.975 L80.2,33.975 C80.6,33.975 80.9,33.675 80.9,33.275 L80.9,27.375 L89.9,27.375 C90.8,27.375 91.3,26.275 90.7,25.575 L84.9,18.775 L88.2,18.775 C89.1,18.775 89.6,17.675 89,16.975 L82.9,9.675 L84.7,9.675 C85.6,9.675 86.1,8.575 85.5,7.875 L79.2,0.375 C78.8,-0.125 78,-0.125 77.5,0.375 L71.2,7.875 C70.6,8.575 71.1,9.675 72,9.675 L73.8,9.675 L67.7,16.975 C67.1,17.675 67.6,18.775 68.5,18.775 L71.8,18.775 L66,25.575 C65.5,26.275 66,27.375 66.9,27.375 Z" id="Path"></path>
                <path d="M92.1,73.175 C89.2,73.175 88,72.375 86.3,71.375 C84.3,70.175 81.9,68.675 77.3,68.675 C72.7,68.675 70.3,70.175 68.3,71.375 C66.6,72.375 65.3,73.175 62.5,73.175 C59.6,73.175 58.4,72.375 56.7,71.375 C54.7,70.175 52.3,68.675 47.7,68.675 C43.1,68.675 40.7,70.175 38.7,71.375 C37,72.375 35.7,73.175 32.9,73.175 C30,73.175 28.8,72.375 27,71.375 C25,70.175 22.6,68.675 18,68.675 C13.4,68.675 11,70.175 9,71.375 C7.3,72.375 6,73.175 3.1,73.175 C1.4,73.175 0.1,74.575 0.1,76.175 C0.1,77.875 1.5,79.175 3.1,79.175 C7.7,79.175 10.1,77.675 12.1,76.475 C13.8,75.475 15.1,74.675 18,74.675 C20.9,74.675 22.1,75.475 23.9,76.475 C25.9,77.675 28.3,79.175 32.9,79.175 C37.5,79.175 39.9,77.675 41.9,76.475 C43.6,75.475 44.9,74.675 47.7,74.675 C50.6,74.675 51.8,75.475 53.5,76.475 C55.5,77.675 57.9,79.175 62.5,79.175 C67.1,79.175 69.5,77.675 71.5,76.475 C73.2,75.475 74.5,74.675 77.3,74.675 C80.1,74.675 81.4,75.475 83.1,76.475 C85.1,77.675 87.5,79.175 92.1,79.175 C93.8,79.175 95.1,77.775 95.1,76.175 C95.1,74.575 93.7,73.175 92.1,73.175 Z" id="Path"></path>
                <path d="M92.1,57.075 C89.2,57.075 88,56.275 86.3,55.275 C84.3,54.075 81.9,52.575 77.3,52.575 C72.7,52.575 70.3,54.075 68.3,55.275 C66.6,56.275 65.3,57.075 62.5,57.075 C59.6,57.075 58.3,56.275 56.6,55.275 C54.6,54.075 52.2,52.575 47.6,52.575 C43,52.575 40.6,54.075 38.6,55.275 C36.9,56.275 35.6,57.075 32.8,57.075 C29.9,57.075 28.7,56.275 26.9,55.275 C24.9,54.075 22.5,52.575 17.9,52.575 C13.3,52.575 10.9,54.075 8.9,55.275 C7.2,56.275 5.9,57.075 3,57.075 C1.3,57.075 -1.77635684e-15,58.475 -1.77635684e-15,60.075 C-1.77635684e-15,61.675 1.4,63.075 3,63.075 C7.6,63.075 10,61.575 12,60.375 C13.7,59.375 15,58.575 17.9,58.575 C20.8,58.575 22,59.375 23.8,60.375 C25.8,61.575 28.2,63.075 32.8,63.075 C37.4,63.075 39.8,61.575 41.8,60.375 C43.5,59.375 44.8,58.575 47.6,58.575 C50.5,58.575 51.7,59.375 53.4,60.375 C55.4,61.575 57.8,63.075 62.4,63.075 C67,63.075 69.4,61.575 71.4,60.375 C73.1,59.375 74.4,58.575 77.2,58.575 C80,58.575 81.3,59.375 83,60.375 C85,61.575 87.4,63.075 92,63.075 C93.7,63.075 95,61.675 95,60.075 C95,58.475 93.7,57.075 92.1,57.075 Z" id="Path"></path>
                <path d="M3.1,45.275 L92.1,45.275 C93.8,45.275 95.1,43.875 95.1,42.275 C95.1,40.675 93.7,39.275 92.1,39.275 L3.1,39.275 C1.4,39.275 0.1,40.675 0.1,42.275 C0.1,43.875 1.5,45.275 3.1,45.275 Z" id="Path"></path>
                <path d="M92.1,86.475 L3.1,86.475 C1.4,86.475 0.1,87.875 0.1,89.475 C0.1,91.175 1.5,92.475 3.1,92.475 L92.1,92.475 C93.8,92.475 95.1,91.075 95.1,89.475 C95.1,87.875 93.7,86.475 92.1,86.475 Z" id="Path"></path>
            </g>
        </g>
    </g>
</svg>