<?xml version="1.0" encoding="UTF-8"?>
<svg width="121px" height="66px" viewBox="0 0 121 66" version="1.1" xmlns="http://www.w3.org/2000/svg" xmlns:xlink="http://www.w3.org/1999/xlink">
    <title>Group</title>
    <g id="Page-1" stroke="none" stroke-width="1" fill="none" fill-rule="evenodd">
        <g id="noun_Fish_972746" transform="translate(-20.000000, 0.652479)" fill="#000000" fill-rule="nonzero">
            <g id="Group" transform="translate(19.996213, 0.000000)">
                <path d="M98.1037867,27.6475209 C95.6037867,27.6475209 93.4037867,29.7475209 93.4037867,32.3475209 C93.4037867,34.8475209 95.5037867,37.0475209 98.1037867,37.0475209 C100.603787,37.0475209 102.803787,34.9475209 102.803787,32.3475209 C102.803787,29.8475209 100.603787,27.6475209 98.1037867,27.6475209 Z" id="Path"></path>
                <path d="M116.203787,34.1475209 C117.203787,33.0475209 118.403787,31.9475209 119.303787,30.7475209 C120.503787,29.2475209 119.803787,27.8475209 118.403787,26.7475209 C117.003787,25.5475209 115.503787,24.4475209 114.003787,23.4475209 C107.803787,19.1475209 101.003787,15.8475209 93.9037867,13.5475209 C92.1037867,12.9475209 90.3037867,12.4475209 88.4037867,12.0475209 C87.5037867,11.8475209 86.6037867,11.6475209 85.6037867,11.4475209 C84.6037867,11.2475209 84.0037867,10.6475209 83.2037867,10.0475209 C80.1037867,7.84752086 76.8037867,5.94752086 73.3037867,4.44752086 C69.9037867,2.94752086 66.3037867,1.74752086 62.7037867,0.947520861 C61.0037867,0.547520861 59.2037867,0.247520861 57.5037867,0.0475208614 C56.1037867,-0.152479139 54.6037867,0.247520861 54.3037867,1.84752086 C53.9037867,3.44752086 54.2037867,5.34752086 54.2037867,6.94752086 C54.2037867,8.64752086 54.2037867,10.3475209 54.2037867,12.0475209 C46.1037867,13.9475209 38.4037867,17.2475209 31.4037867,21.7475209 C29.8037867,22.7475209 28.3037867,24.0475209 26.2037867,23.8475209 C25.3037867,23.7475209 24.5037867,23.4475209 23.7037867,23.0475209 C22.6037867,22.4475209 21.6037867,21.8475209 20.5037867,21.2475209 C16.7037867,19.0475209 12.9037867,16.8475209 9.10378674,14.6475209 C7.60378674,13.7475209 6.20378674,12.9475209 4.70378674,12.0475209 C3.50378674,11.3475209 2.30378674,10.5475209 1.00378674,11.5475209 C-0.696213265,12.7475209 0.203786735,14.4475209 1.00378674,15.8475209 C2.00378674,17.5475209 2.90378674,19.2475209 3.70378674,21.1475209 C5.10378674,24.6475209 5.90378674,28.2475209 6.20378674,32.0475209 C6.60378674,39.1475209 4.70378674,45.8475209 1.30378674,52.0475209 C0.803786735,52.8475209 0.103786735,53.8475209 0.00378673546,54.7475209 C-0.0962132645,56.6475209 1.80378674,57.7475209 3.40378674,57.0475209 C4.20378674,56.7475209 4.90378674,56.1475209 5.60378674,55.7475209 C9.30378674,53.6475209 12.9037867,51.4475209 16.6037867,49.3475209 C19.0037867,47.9475209 21.3037867,46.4475209 23.8037867,45.1475209 C27.6037867,43.0475209 31.0037867,46.5475209 34.2037867,48.3475209 C37.8037867,50.4475209 41.6037867,52.2475209 45.5037867,53.6475209 C47.4037867,54.3475209 49.4037867,54.9475209 51.4037867,55.5475209 C51.4037867,57.0475209 51.4037867,58.4475209 51.4037867,59.9475209 C51.4037867,61.6475209 51.0037867,64.1475209 53.3037867,64.6475209 C54.5037867,64.9475209 56.1037867,64.4475209 57.3037867,64.2475209 C59.1037867,63.9475209 60.8037867,63.4475209 62.5037867,62.8475209 C64.2037867,62.2475209 66.0037867,61.5475209 67.6037867,60.6475209 C68.3037867,60.2475209 69.1037867,59.8475209 69.8037867,59.4475209 C70.5037867,59.0475209 71.2037867,58.4475209 72.0037867,58.3475209 C74.0037867,58.1475209 76.0037867,58.2475209 78.0037867,58.0475209 C79.8037867,57.8475209 81.6037867,57.6475209 83.4037867,57.3475209 C86.9037867,56.7475209 90.4037867,55.9475209 93.9037867,54.8475209 C100.703787,52.7475209 107.103787,49.6475209 113.003787,45.7475209 C114.603787,44.6475209 116.203787,43.5475209 117.803787,42.2475209 C119.203787,41.1475209 120.903787,39.8475209 119.703787,37.9475209 C118.703787,36.4475209 117.303787,35.3475209 116.203787,34.1475209 Z M71.4037867,53.3475209 C69.9037867,53.3475209 69.1037867,53.9475209 67.9037867,54.6475209 C66.7037867,55.4475209 65.4037867,56.1475209 64.1037867,56.7475209 C61.6037867,57.9475209 58.9037867,58.8475209 56.1037867,59.3475209 C56.1037867,58.0475209 56.1037867,56.7475209 56.1037867,55.4475209 C56.1037867,54.0475209 56.3037867,52.3475209 54.9037867,51.5475209 C53.7037867,50.8475209 52.0037867,50.6475209 50.6037867,50.2475209 C49.1037867,49.7475209 47.7037867,49.2475209 46.2037867,48.7475209 C43.3037867,47.6475209 40.4037867,46.2475209 37.6037867,44.7475209 C36.3037867,44.0475209 35.0037867,43.2475209 33.8037867,42.4475209 C32.4037867,41.5475209 31.0037867,40.5475209 29.4037867,40.0475209 C26.6037867,39.1475209 23.7037867,39.4475209 21.2037867,40.9475209 C19.1037867,42.1475209 17.1037867,43.3475209 15.0037867,44.5475209 C12.7037867,45.9475209 10.3037867,47.2475209 8.00378674,48.6475209 C11.7037867,39.3475209 11.7037867,29.0475209 8.10378674,19.7475209 C10.5037867,21.1475209 12.8037867,22.4475209 15.2037867,23.8475209 C17.7037867,25.2475209 20.2037867,27.2475209 23.0037867,28.1475209 C26.1037867,29.2475209 29.4037867,28.6475209 32.1037867,26.9475209 C35.0037867,25.0475209 38.0037867,23.2475209 41.2037867,21.7475209 C44.3037867,20.2475209 47.6037867,18.9475209 50.9037867,17.9475209 C52.5037867,17.4475209 54.1037867,17.0475209 55.7037867,16.6475209 C57.3037867,16.2475209 58.7037867,15.9475209 58.8037867,14.0475209 C59.0037867,11.1475209 58.8037867,8.14752086 58.8037867,5.14752086 C66.2037867,6.34752086 73.2037867,9.14752086 79.3037867,13.3475209 C69.0037867,24.0475209 68.2037867,41.5475209 77.8037867,53.1475209 C75.7037867,53.2475209 73.6037867,53.3475209 71.4037867,53.3475209 Z M83.7037867,52.3475209 C73.3037867,42.7475209 73.3037867,25.8475209 83.6037867,16.1475209 C84.8037867,16.4475209 86.2037867,16.5475209 87.4037867,16.8475209 C88.8037867,17.1475209 90.2037867,17.5475209 91.6037867,17.9475209 C94.3037867,18.7475209 96.9037867,19.7475209 99.5037867,20.8475209 C104.703787,23.1475209 109.603787,26.0475209 114.103787,29.4475209 C113.003787,30.6475209 110.603787,32.4475209 110.603787,34.1475209 C110.603787,35.9475209 113.003787,37.6475209 114.103787,38.8475209 C105.203787,45.7475209 94.7037867,50.3475209 83.7037867,52.3475209 Z" id="Shape"></path>
            </g>
        </g>
    </g>
</svg>